<svg id="Layer_2" data-name="Layer 2" xmlns="http://www.w3.org/2000/svg" width="80.369" height="83.863" viewBox="0 0 80.369 83.863">
  <defs>
    <style>
      .cls-1 {
        fill: none;
      }

      .cls-2 {
        fill: #839ab6;
      }
    </style>
  </defs>
  <g id="invisible_box" data-name="invisible box" transform="translate(0 0)">
    <rect id="Rectángulo_1655" data-name="Rectángulo 1655" class="cls-1" width="80.369" height="83.863"/>
  </g>
  <g id="icons_Q2" data-name="icons Q2" transform="translate(5.073 5.901)">
    <path id="Trazado_23947" data-name="Trazado 23947" class="cls-2" d="M11,7.851V43.036a10.853,10.853,0,0,0-7,9.978,10.5,10.5,0,0,0,7,9.8v7.352a3.676,3.676,0,0,0,3.5,3.851A3.676,3.676,0,0,0,18,70.168V62.816a10.5,10.5,0,0,0,7-9.8,10.853,10.853,0,0,0-7-9.978V7.851A3.676,3.676,0,0,0,14.5,4,3.676,3.676,0,0,0,11,7.851Zm7,45.162a3.5,3.5,0,1,1-3.5-3.5A3.5,3.5,0,0,1,18,53.014Z" transform="translate(-4 -4)"/>
    <path id="Trazado_23948" data-name="Trazado 23948" class="cls-2" d="M25,7.7v7.177a10.853,10.853,0,0,0-7,9.978,10.5,10.5,0,0,0,7,9.8v35.36a3.5,3.5,0,1,0,7,0V34.658a10.5,10.5,0,0,0,7-9.8,10.853,10.853,0,0,0-7-9.978V7.7a3.5,3.5,0,1,0-7,0Zm7,17.155a3.5,3.5,0,1,1-3.5-3.5A3.5,3.5,0,0,1,32,24.856Z" transform="translate(6.507 -3.85)"/>
    <path id="Trazado_23949" data-name="Trazado 23949" class="cls-2" d="M39,7.7V37.634a10.853,10.853,0,0,0-7,9.978,10.5,10.5,0,0,0,7,9.8v12.6a3.5,3.5,0,0,0,7,0v-12.6a10.5,10.5,0,0,0,7-9.8,10.853,10.853,0,0,0-7-9.978V7.7a3.5,3.5,0,0,0-7,0Zm7,39.911a3.5,3.5,0,1,1-3.5-3.5A3.5,3.5,0,0,1,46,47.612Z" transform="translate(17.013 -3.85)"/>
  </g>
</svg>
