<svg id="Icono_Aceptar" data-name="Icono Aceptar" xmlns="http://www.w3.org/2000/svg" width="60.607" height="62.347" viewBox="0 0 60.607 62.347">
  <path id="Trazado_37" data-name="Trazado 37" d="M65.463,42.386a7.745,7.745,0,0,0,1.812-5.176,7.952,7.952,0,0,0-1.695-4.485,6.968,6.968,0,0,0-1.656-8.018c-2.073-1.89-5.593-2.738-10.469-2.5a40.916,40.916,0,0,0-6.415.821h-.013c-.652.117-1.343.261-2.047.417-.052-.834.091-2.907,1.63-7.575,1.825-5.554,1.721-9.8-.339-12.647A8.288,8.288,0,0,0,39.635,0a3.274,3.274,0,0,0-2.516,1.147c-1.447,1.682-1.278,4.785-1.1,6.219C34.3,11.982,29.478,23.3,25.4,26.441a1.4,1.4,0,0,0-.209.183,14.006,14.006,0,0,0-2.555,3.833,5.38,5.38,0,0,0-2.581-.652H12.1a5.428,5.428,0,0,0-5.424,5.424V56.415A5.428,5.428,0,0,0,12.1,61.839h7.953a5.412,5.412,0,0,0,3.129-.991l3.064.365a131.27,131.27,0,0,0,17.379.952c1.552.117,3.012.183,4.368.183a29.253,29.253,0,0,0,6.063-.548c3.99-.847,6.715-2.542,8.1-5.033a7.98,7.98,0,0,0,.887-4.993A8.316,8.316,0,0,0,66,45.007,8.807,8.807,0,0,0,65.463,42.386ZM12.1,58.318a1.906,1.906,0,0,1-1.9-1.9v-21.2a1.906,1.906,0,0,1,1.9-1.9h7.953a1.906,1.906,0,0,1,1.9,1.9V56.4a1.906,1.906,0,0,1-1.9,1.9H12.1ZM62.125,40.861a1.752,1.752,0,0,0-.235,2.125,5.424,5.424,0,0,1,.6,2.177,5.217,5.217,0,0,1-2.451,4.511,1.777,1.777,0,0,0-.6,2.008,4.6,4.6,0,0,1-.352,3.364c-.874,1.565-2.816,2.686-5.763,3.312a34.347,34.347,0,0,1-9.5.287h-.183a128.694,128.694,0,0,1-16.949-.926h-.013l-1.317-.156a5.524,5.524,0,0,0,.117-1.147v-21.2a5.515,5.515,0,0,0-.248-1.617,10.9,10.9,0,0,1,2.425-4.472c5.854-4.641,11.578-20.3,11.825-20.978a1.651,1.651,0,0,0,.078-.874,8.148,8.148,0,0,1,.169-3.781A4.678,4.678,0,0,1,43.4,5.254c1.33,1.838,1.278,5.124-.156,9.479-2.19,6.636-2.373,10.13-.639,11.669a2.842,2.842,0,0,0,2.842.508c.8-.183,1.552-.339,2.269-.456.052-.013.117-.026.169-.039,4-.874,11.173-1.408,13.664.86,2.112,1.93.613,4.485.443,4.759a1.743,1.743,0,0,0,.313,2.269,4.939,4.939,0,0,1,1.447,3.038A4.842,4.842,0,0,1,62.125,40.861Z" transform="translate(-6.675 0)" fill="#272d3b"/>
</svg>
