<svg xmlns="http://www.w3.org/2000/svg" width="64.033" height="65.668" viewBox="0 0 64.033 65.668">
  <g id="Grupo_36" data-name="Grupo 36" transform="translate(-958.661 776.437)">
    <path id="Trazado_53" data-name="Trazado 53" d="M973.284-769.637c0-1.627,0-3.171,0-4.716a1.932,1.932,0,0,1,.926-1.827,1.8,1.8,0,0,1,2.731,1.53c.024,1.415,0,2.832,0,4.248v.755h26.77c0-.515,0-1.01,0-1.5,0-1.176-.019-2.354.008-3.529a1.763,1.763,0,0,1,1.814-1.75,1.737,1.737,0,0,1,1.763,1.783c.008,1.651,0,3.3,0,5.012.3.015.527.038.759.038q3.822,0,7.646,0a6.743,6.743,0,0,1,4.177,1.439,6.873,6.873,0,0,1,2.81,5.774q0,22.123,0,44.246a7.122,7.122,0,0,1-7.379,7.365q-14.247.008-28.495,0-10.456,0-20.913,0a7.13,7.13,0,0,1-7.194-6.191,7.162,7.162,0,0,1-.047-1.042q0-22.352-.006-44.7a7.11,7.11,0,0,1,6.84-6.887c2.374-.009,4.749,0,7.124,0C972.815-769.6,973.006-769.621,973.284-769.637Zm-11,16.9v.6q0,17.026,0,34.052a3.551,3.551,0,0,0,3.756,3.653q24.607,0,49.215,0a3.568,3.568,0,0,0,3.815-3.851q0-16.862,0-33.725v-.73Z" transform="translate(0 0)" fill="#272d3b"/>
    <path id="Trazado_54" data-name="Trazado 54" d="M1003.385-727.023h9.628v9.6h-9.628Z" transform="translate(-17.45 -19.281)" fill="#272d3b"/>
    <path id="Trazado_55" data-name="Trazado 55" d="M1013.023-702.6v9.593h-9.61V-702.6Z" transform="translate(-17.461 -28.81)" fill="#272d3b"/>
    <path id="Trazado_56" data-name="Trazado 56" d="M988.862-717.39h-9.586V-727h9.586Z" transform="translate(-8.043 -19.288)" fill="#272d3b"/>
    <path id="Trazado_57" data-name="Trazado 57" d="M1027.539-717.414V-727h9.61v9.584Z" transform="translate(-26.875 -19.29)" fill="#272d3b"/>
    <path id="Trazado_58" data-name="Trazado 58" d="M988.844-693.017h-9.581v-9.608h9.581Z" transform="translate(-8.039 -28.8)" fill="#272d3b"/>
  </g>
</svg>
