<svg id="Icono_Borrar" data-name="Icono Borrar" xmlns="http://www.w3.org/2000/svg" width="64.081" height="72.051" viewBox="0 0 64.081 72.051">
  <g id="Icono" transform="translate(0 0)">
    <path id="Trazado_28" data-name="Trazado 28" d="M88.982,10.369H73.991V7.925A7.934,7.934,0,0,0,66.066,0H51.816a7.934,7.934,0,0,0-7.925,7.925v2.444H28.9a2,2,0,1,0,0,4h3.614V61.356a10.709,10.709,0,0,0,10.7,10.7H74.672a10.709,10.709,0,0,0,10.7-10.7V14.369h3.614a2,2,0,0,0,0-4ZM47.89,7.925A3.932,3.932,0,0,1,51.816,4h14.25a3.932,3.932,0,0,1,3.925,3.925v2.444H47.89ZM81.368,61.356a6.708,6.708,0,0,1-6.7,6.7H43.209a6.708,6.708,0,0,1-6.7-6.7V14.369H81.382V61.356Z" transform="translate(-26.9)" fill="#272d3b"/>
    <path id="Trazado_29" data-name="Trazado 29" d="M231.7,184.743a1.991,1.991,0,0,0,2-2V147.4a2,2,0,1,0-4,0v35.329A2,2,0,0,0,231.7,184.743Z" transform="translate(-199.659 -123.862)" fill="#272d3b"/>
    <path id="Trazado_30" data-name="Trazado 30" d="M143.6,195.144a1.991,1.991,0,0,0,2-2V162.2a2,2,0,0,0-4,0v30.944A2,2,0,0,0,143.6,195.144Z" transform="translate(-124.609 -136.469)" fill="#272d3b"/>
    <path id="Trazado_31" data-name="Trazado 31" d="M319.8,195.144a1.991,1.991,0,0,0,2-2V162.2a2,2,0,0,0-4,0v30.944A1.991,1.991,0,0,0,319.8,195.144Z" transform="translate(-274.709 -136.469)" fill="#272d3b"/>
  </g>
</svg>
