<svg xmlns="http://www.w3.org/2000/svg" width="73.65" height="73.654" viewBox="0 0 73.65 73.654">
  <path id="Icono_Información" data-name="Icono Información" d="M-1336.565,576.35a36.324,36.324,0,0,1,36.325-36.325,36.322,36.322,0,0,1,36.325,36.325,36.325,36.325,0,0,1-36.325,36.329A36.327,36.327,0,0,1-1336.565,576.35Zm4.424,0a31.941,31.941,0,0,0,31.9,31.9,31.936,31.936,0,0,0,31.9-31.9,31.932,31.932,0,0,0-31.9-31.9A31.938,31.938,0,0,0-1332.141,576.35Zm29.69,17.515V568.955h4.424v24.911Zm0-29.841v-5.186h4.424v5.186Z" transform="translate(1337.065 -539.525)" fill="#272d3b" stroke="rgba(0,0,0,0)" stroke-width="1"/>
</svg>
