<svg id="icono_Mensaje" data-name="icono Mensaje" xmlns="http://www.w3.org/2000/svg" width="81.382" height="61.933" viewBox="0 0 81.382 61.933">
  <g id="Grupo_23" data-name="Grupo 23" transform="translate(0 0)">
    <path id="Trazado_25" data-name="Trazado 25" d="M71.447,57.75H9.952A9.96,9.96,0,0,0,0,67.7v42.03a9.96,9.96,0,0,0,9.952,9.952H71.43a9.96,9.96,0,0,0,9.952-9.952V67.719A9.95,9.95,0,0,0,71.447,57.75Zm5.405,51.981a5.411,5.411,0,0,1-5.405,5.405H9.952a5.411,5.411,0,0,1-5.405-5.405V67.719a5.411,5.411,0,0,1,5.405-5.405H71.43a5.411,5.411,0,0,1,5.405,5.405v42.013Z" transform="translate(0 -57.75)" fill="#272d3b"/>
    <path id="Trazado_26" data-name="Trazado 26" d="M97.689,130.733l19.9-17.849a2.277,2.277,0,1,0-3.048-3.385L87.1,134.135l-5.355-4.782c-.017-.017-.034-.034-.034-.051a3.366,3.366,0,0,0-.37-.32l-21.789-19.5a2.278,2.278,0,1,0-3.031,3.4l20.139,18L56.6,149.66a2.282,2.282,0,0,0-.1,3.216,2.326,2.326,0,0,0,1.667.724,2.278,2.278,0,0,0,1.549-.606L80.076,133.95l5.523,4.934a2.267,2.267,0,0,0,3.031-.017l5.675-5.085,20.24,19.23a2.279,2.279,0,0,0,3.216-.084,2.282,2.282,0,0,0-.084-3.216Z" transform="translate(-46.364 -100.289)" fill="#272d3b"/>
  </g>
</svg>
