<svg id="Grupo_44" data-name="Grupo 44" xmlns="http://www.w3.org/2000/svg" width="469.079" height="104.792" viewBox="0 0 469.079 104.792">
  <path id="Trazado_23872" data-name="Trazado 23872" d="M93.62,333.065a80.257,80.257,0,0,1-8.043-12.825,56.707,56.707,0,0,1-5.355-16.447,48.943,48.943,0,0,1-.6-7.554c0-.853.029-1.707.074-2.561a50.326,50.326,0,0,1,1.442-9.535,60.6,60.6,0,0,1,5.695-14.336c.031-.056.063-.111.093-.167.1-.181.2-.362.3-.543q.456-.812.938-1.627c.2-.33.393-.659.6-.992q2.064-3.361,4.593-6.724A121.554,121.554,0,0,1,107.9,243.844L37.226,296.238l70.677,52.4A122.582,122.582,0,0,1,93.62,333.065Z" transform="translate(-37.226 -243.844)" fill="#fff"/>
  <g id="Grupo_41" data-name="Grupo 41" transform="translate(351.441 39.491)">
    <path id="Trazado_23873" data-name="Trazado 23873" d="M489.2,295.231a11.725,11.725,0,0,1,9,8.7,2.933,2.933,0,0,0,3.509,1.929,2.626,2.626,0,0,0,2.174-3.309,22.424,22.424,0,0,0-1.68-4,12.424,12.424,0,0,1,11.616-3.312c6.374,1.381,10.381,8.008,9,14.63-1.434,6.375-8.058,10.382-14.683,8.947a11.82,11.82,0,0,1-8.995-9.642,3.246,3.246,0,0,0-3.315-2.37,2.975,2.975,0,0,0-2.368,3.31,14.768,14.768,0,0,0,1.878,5.388,12.866,12.866,0,0,1-11.568,3.313,12.069,12.069,0,0,1,2.816-23.824,8.758,8.758,0,0,1,2.621.247m9.44,24.762a21.871,21.871,0,0,0,8.307,4.5A17.932,17.932,0,1,0,515,289.545a18.845,18.845,0,0,0-16.363,4.5,16.666,16.666,0,0,0-8.057-4.5,17.926,17.926,0,1,0-8.006,34.946,19.777,19.777,0,0,0,4,.443A17.839,17.839,0,0,0,498.635,319.993Zm35.986,15.571V323.8a13.127,13.127,0,0,0,5.19.937,17.73,17.73,0,0,0,17.791-17.7,17.747,17.747,0,0,0-28.666-14.187,2.757,2.757,0,0,0-.693,4,2.965,2.965,0,0,0,4.006.495,11.893,11.893,0,0,1,7.561-2.37,12.036,12.036,0,1,1,0,24.071,11.324,11.324,0,0,1-5.19-1.633v-.942a2.842,2.842,0,1,0-5.684,0v19.083a2.842,2.842,0,1,0,5.684,0Zm-76.666-10.825a17.823,17.823,0,1,1,10.629-31.882,2.722,2.722,0,0,1,.694,4,2.94,2.94,0,0,1-4.007.495c-.494-.247-.69-.495-1.188-.742a11.735,11.735,0,0,0-6.128-1.628,12.039,12.039,0,1,0,0,24.071,11.284,11.284,0,0,0,6.128-1.633c.5-.247.694-.494,1.188-.739a2.941,2.941,0,0,1,4.007.492,2.724,2.724,0,0,1-.694,4A17.425,17.425,0,0,1,457.956,324.739Z" transform="translate(-439.964 -289.099)" fill="#fff"/>
  </g>
  <g id="Grupo_42" data-name="Grupo 42" transform="translate(233.534 13.153)">
    <path id="Trazado_23874" data-name="Trazado 23874" d="M312.863,266.784a4.25,4.25,0,0,0-3.113-1.073c-1.522-.024-2.754.514-2.73,1.611.022,1.141,1.365,1.477,2.753,1.634,2.015.246,4.7.649,4.657,3.382-.044,2.216-2.149,3.313-4.635,3.313a6.035,6.035,0,0,1-4.948-2.082l1.053-1.277a5.1,5.1,0,0,0,3.941,1.7c1.209,0,2.753-.381,2.8-1.725.022-1.209-1.277-1.567-2.978-1.768-2.127-.27-4.411-.83-4.411-3.18-.022-2.352,2.351-3.269,4.478-3.247a5.883,5.883,0,0,1,4.209,1.479l-1.052,1.209Z" transform="translate(-304.847 -259.574)" fill="#fff"/>
    <path id="Trazado_23875" data-name="Trazado 23875" d="M323.619,264.075a5.755,5.755,0,1,1-5.731,5.8A5.526,5.526,0,0,1,323.619,264.075Zm.024,1.68a3.854,3.854,0,0,0-3.919,4.12,3.919,3.919,0,1,0,7.836,0A3.878,3.878,0,0,0,323.643,265.755Z" transform="translate(-306.508 -259.574)" fill="#fff"/>
    <path id="Trazado_23876" data-name="Trazado 23876" d="M334.976,274.747v-9.336H332.8V263.8h2.171v-.874c0-2.53,1.388-4.009,3.717-4.009a4.448,4.448,0,0,1,2.507.808l-.762,1.366a3.128,3.128,0,0,0-1.7-.56c-1.187,0-1.948.738-1.948,2.4v.874h3.47v1.612h-3.47v9.314h-1.836Z" transform="translate(-308.408 -258.917)" fill="#fff"/>
    <path id="Trazado_23877" data-name="Trazado 23877" d="M346.663,263.909h3.425v1.567h-3.447v5.843c0,1.3.424,2.127,1.746,2.127a3.607,3.607,0,0,0,1.545-.4l.538,1.522a5.437,5.437,0,0,1-2.149.538c-2.374.046-3.493-1.343-3.493-3.785v-5.843h-2.216v-1.567h2.216v-3.045l1.836-.2Z" transform="translate(-309.657 -259.139)" fill="#fff"/>
    <path id="Trazado_23878" data-name="Trazado 23878" d="M354.788,264.358l2.977,9.113,2.933-9.113h1.5l2.933,9.113,2.977-9.113h2.015l-3.873,11.082h-2.1l-1.5-4.119-1.187-4.031-1.209,4.031-1.5,4.119h-2.082l-3.919-11.082Z" transform="translate(-310.948 -259.61)" fill="#fff"/>
    <path id="Trazado_23879" data-name="Trazado 23879" d="M383.971,275.438l-.045-2.017a4.68,4.68,0,0,1-4.074,2.239,5.754,5.754,0,0,1,.023-11.507,4.636,4.636,0,0,1,4.1,2.193l.022-2.014h1.792v11.061h-1.769ZM379.94,265.9a4.042,4.042,0,0,0,0,8.082c5.329,0,5.329-8.106.023-8.106Z" transform="translate(-313.679 -259.584)" fill="#fff"/>
    <path id="Trazado_23880" data-name="Trazado 23880" d="M393.058,264.306l.135,1.658a3.585,3.585,0,0,1,3.4-1.836,4.156,4.156,0,0,1,2.575.827l-.828,1.568a3.275,3.275,0,0,0-5.173,2.709v6.157h-1.835V264.329h1.7Z" transform="translate(-315.863 -259.581)" fill="#fff"/>
    <path id="Trazado_23881" data-name="Trazado 23881" d="M411.706,273.614a6.388,6.388,0,0,1-4.769,1.971,5.755,5.755,0,1,1-.089-11.51c3.381,0,5.955,2.082,5.53,6.494h-9.4a3.746,3.746,0,0,0,4.008,3.312,4.843,4.843,0,0,0,3.515-1.387l1.231,1.12Zm-1.074-4.568c-.09-2.15-1.568-3.312-3.739-3.312a3.773,3.773,0,0,0-3.919,3.291h7.658Z" transform="translate(-317.109 -259.574)" fill="#fff"/>
  </g>
  <g id="Grupo_43" data-name="Grupo 43" transform="translate(61.569 30.171)">
    <path id="Trazado_23882" data-name="Trazado 23882" d="M138.369,324.168h-9.54l-21.048-35.547h10.3L133.6,314.756l15.516-26.135h10.365Z" transform="translate(-107.782 -279.718)" fill="#fff"/>
    <path id="Trazado_23883" data-name="Trazado 23883" d="M179.644,324.149h-8.967V288.475h8.967Z" transform="translate(-115.793 -279.7)" fill="#fff"/>
    <path id="Trazado_23884" data-name="Trazado 23884" d="M201.532,288.621h31.223v8.9H201.532a4.4,4.4,0,0,0-4.388,4.388v22.256h-8.9V301.911A13.325,13.325,0,0,1,201.532,288.621Z" transform="translate(-118.03 -279.718)" fill="#fff"/>
    <path id="Trazado_23885" data-name="Trazado 23885" d="M268.8,287.322h22.256v8.9H268.8v13.354a4.464,4.464,0,0,0,4.451,4.451h17.805v8.839H273.253a13.353,13.353,0,0,1-13.418-13.29V296.224H246.544v-8.9h13.291v-8.9H268.8Z" transform="translate(-125.456 -278.419)" fill="#fff"/>
    <path id="Trazado_23886" data-name="Trazado 23886" d="M340.458,288.621h8.9v35.547h-31.1a13.313,13.313,0,0,1-13.418-13.29V288.621h8.9v22.256a4.478,4.478,0,0,0,4.515,4.451h22.194Z" transform="translate(-132.882 -279.718)" fill="#fff"/>
    <path id="Trazado_23887" data-name="Trazado 23887" d="M374.278,324.168a11.128,11.128,0,1,1,0-22.256H398.76a4.41,4.41,0,0,0-4.451-4.388h-31.16v-8.9h31.16a13.339,13.339,0,0,1,13.355,13.29v22.256Zm0-8.839H398.76v-4.451H374.278a2.212,2.212,0,0,0-2.225,2.225A2.253,2.253,0,0,0,374.278,315.329Z" transform="translate(-140.309 -279.718)" fill="#fff"/>
    <path id="Trazado_23888" data-name="Trazado 23888" d="M421.452,322.868V278.419h8.84v44.449Z" transform="translate(-147.735 -278.419)" fill="#fff"/>
  </g>
</svg>
