<svg id="Grupo_814" data-name="Grupo 814" xmlns="http://www.w3.org/2000/svg" width="44.12" height="44.117" viewBox="0 0 44.12 44.117">
  <defs>
    <style>
      .cls-1 {
        fill: #839ab6;
      }
    </style>
  </defs>
  <path id="Trazado_59" data-name="Trazado 59" class="cls-1" d="M938.309-699.324c1.041,1.033,2.069,2.048,3.091,3.069q2.966,2.961,5.927,5.928a3.358,3.358,0,0,1,.708,3.915,3.382,3.382,0,0,1-3.684,1.87,3.407,3.407,0,0,1-1.852-1.049q-4.344-4.341-8.7-8.678c-.085-.085-.174-.165-.276-.261a18.33,18.33,0,0,1-16.1,2.415,17.769,17.769,0,0,1-9.916-7.307,18.554,18.554,0,0,1,2.3-23.745,18.53,18.53,0,0,1,23.757-2.082,17.991,17.991,0,0,1,7.7,11.974A18.142,18.142,0,0,1,938.309-699.324Zm-3.5-10.582A11.966,11.966,0,0,0,923-721.809a12.067,12.067,0,0,0-11.938,11.844,12.063,12.063,0,0,0,11.879,11.938A11.962,11.962,0,0,0,934.813-709.906Z" transform="translate(-904.266 728.605)"/>
</svg>
