<svg id="Grupo_27" data-name="Grupo 27" xmlns="http://www.w3.org/2000/svg" width="57.352" height="68.619" viewBox="0 0 57.352 68.619">
  <defs>
    <style>
      .cls-1 {
        fill: #8391a2;
      }

      .cls-2 {
        fill: none;
        stroke: #8391a2;
        stroke-linecap: round;
        stroke-width: 2px;
      }
    </style>
  </defs>
  <g id="Grupo_26" data-name="Grupo 26" transform="translate(0 0)">
    <path id="Trazado_66" data-name="Trazado 66" class="cls-1" d="M-580.088-1425.151a9.92,9.92,0,0,1-3.533,7.923,9.612,9.612,0,0,1-6.572,2.375,9.7,9.7,0,0,1-7.082-3.053,9.875,9.875,0,0,1-2.809-7.223c-.18-.009-.333-.022-.486-.022-5.026,0-10.053-.042-15.078.023a2.9,2.9,0,0,1-3.11-3.362,11.826,11.826,0,0,1,6.316-9.872,1.891,1.891,0,0,0,1.053-1.792q-.011-7.995,0-15.989a19.211,19.211,0,0,1,1.994-8.789,19.882,19.882,0,0,1,16.205-11.36c.328-.04.4-.16.4-.461-.012-1.372-.025-2.744.005-4.116a2.646,2.646,0,0,1,2.054-2.531,2.65,2.65,0,0,1,3.052,1.405,3.536,3.536,0,0,1,.292,1.377c.038,1.285.024,2.57.006,3.856,0,.336.1.433.433.471a19.847,19.847,0,0,1,15.239,9.638,19.711,19.711,0,0,1,2.93,10.672c0,5.214.01,10.428-.011,15.642a2.157,2.157,0,0,0,1.206,2.06,11.666,11.666,0,0,1,6.164,10.3,2.673,2.673,0,0,1-2.794,2.821q-7.626.01-15.252,0Zm-32.6-5.47h45.189c-.05-.12-.076-.2-.115-.273a6.771,6.771,0,0,0-2.761-2.731,7.05,7.05,0,0,1-3.847-6.468c-.026-5.272-.006-10.544-.011-15.815a13.654,13.654,0,0,0-.074-1.686,14.555,14.555,0,0,0-9.825-12.546,18.186,18.186,0,0,0-7.611-.8,16.365,16.365,0,0,0-3.41.527,14.71,14.71,0,0,0-10.8,14.212c-.014,5.372.017,10.746-.011,16.118a7.1,7.1,0,0,1-3.842,6.477,9.065,9.065,0,0,0-1.351.93A5.439,5.439,0,0,0-612.684-1430.622Zm18.1,5.483a4.443,4.443,0,0,0,2.131,4.193,4.575,4.575,0,0,0,5.194-.323c1.2-.955,1.995-2.807,1.642-3.87Z" transform="translate(618.775 1483.472)"/>
  </g>
  <path id="Trazado_67" data-name="Trazado 67" class="cls-2" d="M1918.908,30.279s9,.843,8.855,9.558" transform="translate(-1889.428 -11.493)"/>
</svg>
