<svg xmlns="http://www.w3.org/2000/svg" width="63.033" height="63.013" viewBox="0 0 63.033 63.013">
  <defs>
    <style>
      .cls-1 {
        fill: #839ab6;
      }
    </style>
  </defs>
  <g id="Grupo_25" data-name="Grupo 25" transform="translate(0 0)">
    <path id="Trazado_64" data-name="Trazado 64" class="cls-1" d="M836.582-1065.085c-2.376-2.3-4.546-4.366-6.652-6.494-.234-.237-.2-.85-.131-1.26a15.785,15.785,0,0,0-12.171-18.4,15.819,15.819,0,0,0-18.867,12.642,15.718,15.718,0,0,0,13.879,18.344,15.623,15.623,0,0,0,4.331-.123,2.241,2.241,0,0,1,2.388.859c1.8,1.93,3.655,3.8,5.705,5.916-1.618.553-2.993,1.088-4.407,1.484-.914.256-1.386.623-1.389,1.67-.005,1.448-.236,2.893-.328,4.342-.074,1.168-.512,1.806-1.824,1.751-1.867-.079-3.741-.078-5.607,0-1.3.055-1.768-.551-1.844-1.732-.1-1.5-.306-3-.346-4.5-.024-.89-.407-1.2-1.2-1.487-2.131-.782-4.191-1.756-6.319-2.546a2.145,2.145,0,0,0-1.717.136,43.885,43.885,0,0,0-3.736,3.049,1.43,1.43,0,0,1-2.282-.1q-2.006-2.068-4.082-4.068a1.425,1.425,0,0,1-.128-2.279,43.507,43.507,0,0,0,3.047-3.737,2.144,2.144,0,0,0,.162-1.718c-.79-2.128-1.789-4.18-2.543-6.319a1.523,1.523,0,0,0-1.637-1.228c-1.45-.045-2.894-.247-4.343-.338-1.169-.073-1.809-.509-1.754-1.82.078-1.866.077-3.739,0-5.6-.054-1.293.546-1.77,1.731-1.844,1.5-.093,3-.3,4.5-.344.888-.026,1.2-.417,1.491-1.209.786-2.129,1.762-4.188,2.553-6.316a2.133,2.133,0,0,0-.147-1.716c-.961-1.349-2.077-2.587-3.15-3.856a1.331,1.331,0,0,1,.1-2.049q2.162-2.134,4.3-4.29a1.372,1.372,0,0,1,2.163-.024,46.556,46.556,0,0,0,3.739,3.045,2.131,2.131,0,0,0,1.708.165c2.128-.789,4.179-1.79,6.32-2.54a1.523,1.523,0,0,0,1.236-1.626c.054-1.5.242-3,.353-4.5a1.5,1.5,0,0,1,1.792-1.612c1.919.071,3.843.061,5.763,0,1.144-.035,1.6.517,1.685,1.555.128,1.6.194,3.215.433,4.8a1.932,1.932,0,0,0,1,1.23q3.243,1.472,6.578,2.733a1.955,1.955,0,0,0,1.581-.178,47.826,47.826,0,0,0,3.736-3.049,1.432,1.432,0,0,1,2.285.062q2.066,2.118,4.183,4.187a1.378,1.378,0,0,1,.055,2.166c-1.054,1.215-2.121,2.429-3.048,3.738a2.123,2.123,0,0,0-.2,1.705c.79,2.128,1.789,4.179,2.552,6.315a1.531,1.531,0,0,0,1.618,1.258c1.5.046,3,.245,4.5.353,1.125.081,1.666.576,1.623,1.782-.069,1.918-.062,3.842,0,5.761a1.444,1.444,0,0,1-1.544,1.695c-1.5.124-3,.328-4.5.353a1.538,1.538,0,0,0-1.714,1.345C837.677-1068.123,837.137-1066.74,836.582-1065.085Z" transform="translate(-782.782 1107.365)"/>
    <path id="Trazado_65" data-name="Trazado 65" class="cls-1" d="M870.813-1030.356a19.13,19.13,0,0,1-.611,3.18,1.736,1.736,0,0,0,.607,2.141q8.438,8.065,16.821,16.186a4.416,4.416,0,0,1,1.509,4.6,4.3,4.3,0,0,1-3.419,3.238,4.516,4.516,0,0,1-4.429-1.655c-5.322-5.534-10.676-11.037-15.966-16.6a2.145,2.145,0,0,0-2.53-.674,10.91,10.91,0,0,1-13.636-13.178c.431-1.655.949-1.82,2.135-.648,1.586,1.568,3.174,3.136,4.723,4.741a1.428,1.428,0,0,0,2.379.009c.9-.934,1.811-1.859,2.755-2.748a1.485,1.485,0,0,0-.025-2.5c-1.571-1.51-3.1-3.065-4.633-4.611-1.2-1.209-1.065-1.724.548-2.167A11.013,11.013,0,0,1,870.813-1030.356Z" transform="translate(-828.238 1061.959)"/>
  </g>
</svg>
