<svg id="Icono_Ayuda" data-name="Icono Ayuda" xmlns="http://www.w3.org/2000/svg" width="68.432" height="68.432" viewBox="0 0 68.432 68.432">
  <defs>
    <style>
      .cls-1 {
        fill: #839ab6;
      }
    </style>
  </defs>
  <path id="Trazado_23853" data-name="Trazado 23853" class="cls-1" d="M37.591,7.981A29.615,29.615,0,0,1,58.532,58.532,29.615,29.615,0,0,1,16.65,16.65,29.414,29.414,0,0,1,37.591,7.981m0-4.606A34.216,34.216,0,1,0,71.807,37.591,34.211,34.211,0,0,0,37.591,3.375Z" transform="translate(-3.375 -3.375)"/>
  <path id="Trazado_23854" data-name="Trazado 23854" class="cls-1" d="M27.548,11.25c8.142,0,13.744,4.516,13.744,11.008,0,4.3-2.084,7.274-6.1,9.64-3.778,2.193-5.059,3.8-5.059,6.579v1.715H22.6l-.065-1.867c-.369-4.473,1.194-7.252,5.124-9.554,3.669-2.193,5.211-3.583,5.211-6.275s-2.606-4.668-5.841-4.668a5.493,5.493,0,0,0-5.819,5.341H13.5C13.652,16.179,18.82,11.25,27.548,11.25Zm-5.71,37.216a4.661,4.661,0,1,1,4.647,4.473A4.548,4.548,0,0,1,21.838,48.466Z" transform="translate(6.82 2.122)"/>
</svg>
