<svg id="Icono_Imprimir" data-name="Icono Imprimir" xmlns="http://www.w3.org/2000/svg" width="68.465" height="72.033" viewBox="0 0 68.465 72.033">
  <g id="Grupo_32" data-name="Grupo 32" transform="translate(0 0)">
    <path id="Trazado_61" data-name="Trazado 61" d="M69.771,14.765H67.919v-4.12A10.659,10.659,0,0,0,57.275,0H34.926A10.659,10.659,0,0,0,24.281,10.645v4.12H22.594A10.659,10.659,0,0,0,11.95,25.409V42.578A10.659,10.659,0,0,0,22.594,53.223h1.672v13.5a5.327,5.327,0,0,0,5.315,5.315H62.59A5.327,5.327,0,0,0,67.9,66.719v-13.5h1.866A10.659,10.659,0,0,0,80.415,42.578V25.409A10.659,10.659,0,0,0,69.771,14.765ZM28.3,10.645a6.626,6.626,0,0,1,6.614-6.614H57.245a6.626,6.626,0,0,1,6.614,6.614v4.12H28.3Zm35.576,56.1a1.294,1.294,0,0,1-1.284,1.284H29.581A1.294,1.294,0,0,1,28.3,66.748V44.489H63.874ZM76.384,42.593a6.626,6.626,0,0,1-6.614,6.614H67.919V44.489h2.657a2.015,2.015,0,1,0,0-4.031H21.311a2.015,2.015,0,1,0,0,4.031h2.971v4.718H22.594a6.626,6.626,0,0,1-6.614-6.614V25.424a6.626,6.626,0,0,1,6.614-6.614H69.771a6.626,6.626,0,0,1,6.614,6.614Z" transform="translate(-11.95)" fill="#272d3b"/>
    <path id="Trazado_62" data-name="Trazado 62" d="M142.665,341.431h25.663a2.015,2.015,0,0,0,0-4.031H142.665a2.015,2.015,0,0,0,0,4.031Z" transform="translate(-121.436 -287.029)" fill="#272d3b"/>
    <path id="Trazado_63" data-name="Trazado 63" d="M169.344,392.6H143.665a2.015,2.015,0,0,0,0,4.031h25.663a2.015,2.015,0,0,0,.015-4.031Z" transform="translate(-122.287 -333.988)" fill="#272d3b"/>
    <path id="Trazado_64" data-name="Trazado 64" d="M364.156,151.9h-4.091a2.015,2.015,0,1,0,0,4.031h4.091a2.015,2.015,0,1,0,0-4.031Z" transform="translate(-306.38 -129.223)" fill="#272d3b"/>
  </g>
</svg>
