<svg id="Icono_No_Aceptar" data-name="Icono No Aceptar" xmlns="http://www.w3.org/2000/svg" width="60.057" height="61.768" viewBox="0 0 60.057 61.768">
  <path id="Trazado_19" data-name="Trazado 19" d="M64.87,19.774a9.115,9.115,0,0,0,.543-2.584,8.225,8.225,0,0,0-2.932-6.7A7.9,7.9,0,0,0,61.6,5.538c-1.382-2.48-4.082-4.159-8.035-5A37.415,37.415,0,0,0,43.233.178a130.059,130.059,0,0,0-17.219.943l-3.036.362A5.363,5.363,0,0,0,19.878.5H12A5.378,5.378,0,0,0,6.625,5.874V26.865A5.378,5.378,0,0,0,12,32.239h7.88a5.331,5.331,0,0,0,2.558-.646,13.877,13.877,0,0,0,2.532,3.8,1.383,1.383,0,0,0,.207.181C29.231,38.685,34.01,49.9,35.7,54.47c-.168,1.421-.336,4.5,1.085,6.162a3.225,3.225,0,0,0,2.493,1.137,8.226,8.226,0,0,0,6.575-3.191c2.028-2.816,2.144-7.027.336-12.53-1.524-4.624-1.666-6.678-1.615-7.505.7.155,1.382.3,2.041.413h.013a40.539,40.539,0,0,0,6.355.814c4.831.233,8.332-.607,10.373-2.48A6.886,6.886,0,0,0,65,29.346,7.878,7.878,0,0,0,66.679,24.9,7.847,7.847,0,0,0,64.87,19.774ZM19.878,28.764H12a1.888,1.888,0,0,1-1.886-1.886V5.887A1.888,1.888,0,0,1,12,4h7.88a1.888,1.888,0,0,1,1.886,1.886V26.878A1.88,1.88,0,0,1,19.878,28.764Zm41.556,1.253a5.175,5.175,0,0,1,.607,1.692,3.157,3.157,0,0,1-1.046,3.023c-2.467,2.248-9.572,1.731-13.538.853-.052-.013-.1-.026-.168-.039-.71-.129-1.473-.284-2.248-.452a2.815,2.815,0,0,0-2.816.5c-1.718,1.524-1.524,4.986.633,11.561,1.421,4.314,1.473,7.57.155,9.391a4.618,4.618,0,0,1-3.643,1.744,7.87,7.87,0,0,1-.168-3.746,1.98,1.98,0,0,0-.078-.865C38.88,53.023,33.209,37.5,27.409,32.9a10.958,10.958,0,0,1-2.4-4.431,5.464,5.464,0,0,0,.245-1.6V5.887a5.473,5.473,0,0,0-.116-1.137l1.3-.155h.013a127.3,127.3,0,0,1,16.793-.917h.181a34.006,34.006,0,0,1,9.417.284c2.894.62,4.805,1.705,5.684,3.242a4.509,4.509,0,0,1,.375,3.384,1.7,1.7,0,0,0,.594,1.976c3.824,2.868,2.067,6.213,1.834,6.627a1.7,1.7,0,0,0,.233,2.106,4.868,4.868,0,0,1,1.615,3.462A4.8,4.8,0,0,1,61.731,27.8,1.7,1.7,0,0,0,61.434,30.017Z" transform="translate(-6.625 0)" fill="#272d3b"/>
</svg>
