<svg xmlns="http://www.w3.org/2000/svg" width="65.178" height="65.178" viewBox="0 0 65.178 65.178">
  <defs>
    <style>
      .cls-1, .cls-2 {
        fill: #839ab6;
      }

      .cls-1 {
        stroke: #839ab6;
        stroke-width: 0.5px;
      }
    </style>
  </defs>
  <g id="Grupo_808" data-name="Grupo 808" transform="translate(0.25 0.25)">
    <path id="Trazado_5" data-name="Trazado 5" class="cls-1" d="M249.678,337.033v6.612c-.97,2.8-2.995,3.918-5.868,3.714a4,4,0,0,0-1.567.031,3.126,3.126,0,0,0-1.465,1.021c-1.7,2.459-1.5,4.632,1.157,6.326a1.092,1.092,0,0,1,.2.2,4.371,4.371,0,0,1,.01,6.316c-1.1,1.2-2.271,2.332-3.441,3.464a5.028,5.028,0,0,1-7.2-.029c-.848-.829-1.567-1.791-2.257-2.591-1.017.491-1.64.837-2.3,1.1-2.6,1.043-2.6,1.034-2.606,3.862,0,.1,0,.192,0,.287.079,2.558-.861,4.462-3.417,5.33h-6.612a5.121,5.121,0,0,1-3.559-5.932c.211-1.706-.313-2.576-2.05-3.181-3.134-1.093-3.081-1.246-5.475,1.078a5.068,5.068,0,0,1-7.3.039c-.9-.855-1.768-1.747-2.643-2.63-2.87-2.9-2.965-5.068.013-7.813,1.587-1.463,2.253-2.616,1.063-4.752-1.108-1.989-.85-2.133-3.206-2.133-.143,0-.287-.007-.43,0-2.814.159-4.8-.962-5.73-3.709v-6.612c.966-2.8,3-3.915,5.869-3.714a4,4,0,0,0,1.568-.031,3.135,3.135,0,0,0,1.464-1.023c1.711-2.463,1.493-4.635-1.163-6.327a.568.568,0,0,1-.1-.1,4.4,4.4,0,0,1,0-6.53c1.044-1.121,2.148-2.187,3.245-3.258a5.036,5.036,0,0,1,7.406.048c.807.8,1.481,1.741,2.215,2.617a8.037,8.037,0,0,1,2.777-1.428c1.858-.278,2.338-1.313,2.056-2.977a5.21,5.21,0,0,1-.005-.574c-.158-2.815.954-4.808,3.71-5.74h6.612c2.8.965,3.918,2.991,3.711,5.861-.021.286.03.579-.008.861-.182,1.339.439,1.933,1.643,2.572,2.239,1.187,3.722.793,5.368-1.093,2.138-2.449,5.212-2.321,7.572-.024.857.834,1.7,1.685,2.539,2.536,2.774,2.811,2.847,5.011-.083,7.716-1.576,1.455-2.284,2.6-1.081,4.753,1.117,2,.857,2.143,3.2,2.143.144,0,.288.007.431,0C246.756,333.165,248.745,334.282,249.678,337.033Zm-49.8,25.837c.851-.9,1.588-1.71,2.362-2.485a5.22,5.22,0,0,1,6.16-1.182c1.411.581,2.837,1.123,4.261,1.672a2.535,2.535,0,0,1,1.859,2.584c-.024,1.388.013,2.777-.008,4.166-.014.884.32,1.338,1.264,1.314,1.34-.034,2.69.078,4.016-.062a1.626,1.626,0,0,0,1.081-1.092,30.827,30.827,0,0,0,.074-3.151,4.15,4.15,0,0,1,3.032-4.059,33.194,33.194,0,0,0,3.14-1.37,4.578,4.578,0,0,1,5.773.876c.905.91,1.681,1.949,2.317,2.7l4.981-4.62c-1.02-.994-2.042-1.933-3-2.935a3.676,3.676,0,0,1-1.061-3.938,50.445,50.445,0,0,1,2.455-5.771,3.612,3.612,0,0,1,3.335-1.9c1.005-.012,2.011-.029,3.016-.012.87.015,1.351-.293,1.325-1.25q-.055-2.01,0-4.022c.026-.956-.452-1.265-1.323-1.252-1.053.016-2.11.039-3.159-.028A3.957,3.957,0,0,1,238,334.267c-.42-1.163-.927-2.3-1.457-3.418a4.462,4.462,0,0,1,.893-5.633,32.593,32.593,0,0,1,2.6-2.154l-4.607-4.984c-.749.752-1.536,1.589-2.372,2.374a5.013,5.013,0,0,1-5.293,1.268,39.677,39.677,0,0,1-4.323-1.9,4.207,4.207,0,0,1-2.5-3.883c-.038-.956-.042-1.916-.006-2.872.034-.9-.313-1.339-1.248-1.32-1.292.027-2.586.032-3.878,0-.918-.025-1.308.375-1.3,1.281.006,1.1.014,2.2-.078,3.3a4.01,4.01,0,0,1-3.105,3.832,17.735,17.735,0,0,0-2.886,1.245c-2.334,1.172-4.169.951-5.982-.909-.859-.882-1.575-1.9-2.172-2.638l-4.885,4.766c.791.776,1.626,1.632,2.5,2.444a4.474,4.474,0,0,1,1.187,5.234,46.108,46.108,0,0,1-1.963,4.451,4.006,4.006,0,0,1-3.82,2.33c-.958,0-1.916.026-2.873,0a1.139,1.139,0,0,0-1.326,1.3c0,1.293,0,2.586,0,3.878-.005.968.468,1.376,1.428,1.349a30.726,30.726,0,0,1,3.159.028,3.927,3.927,0,0,1,3.741,2.817,35.167,35.167,0,0,0,1.47,3.411,4.674,4.674,0,0,1-.918,5.655c-.9.91-1.88,1.745-2.771,2.565Z" transform="translate(-185 -308)"/>
    <path id="Trazado_6" data-name="Trazado 6" class="cls-2" d="M274.7,407.165a9.45,9.45,0,1,1,9.467-9.457A9.423,9.423,0,0,1,274.7,407.165Zm5.7-9.34a5.686,5.686,0,1,0-5.818,5.577A5.9,5.9,0,0,0,280.4,397.825Z" transform="translate(-242.192 -365.191)"/>
  </g>
</svg>
