<svg id="Virtualcoop_Logo" data-name="Virtualcoop Logo" xmlns="http://www.w3.org/2000/svg" width="483.465" height="108.005" viewBox="0 0 483.465 108.005">
  <defs>
    <style>
      .cls-1 {
        fill: #003b6a;
      }

      .cls-2 {
        fill: #e13614;
      }
    </style>
  </defs>
  <path id="Trazado_23855" data-name="Trazado 23855" class="cls-1" d="M95.35,138.367a82.717,82.717,0,0,1-8.29-13.218,58.446,58.446,0,0,1-5.52-16.952,50.444,50.444,0,0,1-.614-7.786c0-.879.03-1.759.076-2.64a51.869,51.869,0,0,1,1.487-9.828,62.456,62.456,0,0,1,5.869-14.776c.031-.058.065-.114.1-.172.1-.186.206-.373.31-.559q.469-.836.967-1.676c.2-.34.4-.679.614-1.023q2.128-3.464,4.733-6.931a125.282,125.282,0,0,1,14.99-16.4l-72.844,54,72.844,54A126.344,126.344,0,0,1,95.35,138.367Z" transform="translate(-37.226 -46.41)"/>
  <g id="Grupo_37" data-name="Grupo 37" transform="translate(362.218 40.702)">
    <path id="Trazado_23856" data-name="Trazado 23856" class="cls-2" d="M490.7,97.985a12.084,12.084,0,0,1,9.274,8.962,3.023,3.023,0,0,0,3.616,1.989,2.707,2.707,0,0,0,2.24-3.41A23.116,23.116,0,0,0,504.1,101.4a12.805,12.805,0,0,1,11.973-3.414c6.569,1.424,10.7,8.254,9.274,15.079-1.478,6.571-8.3,10.7-15.133,9.221a12.183,12.183,0,0,1-9.271-9.937,3.345,3.345,0,0,0-3.417-2.443,3.066,3.066,0,0,0-2.441,3.411,15.222,15.222,0,0,0,1.935,5.554,13.261,13.261,0,0,1-11.923,3.415A12.439,12.439,0,0,1,488,97.73a9.027,9.027,0,0,1,2.7.255m9.73,25.521A22.542,22.542,0,0,0,509,128.142a18.481,18.481,0,1,0,8.3-36.018,19.423,19.423,0,0,0-16.865,4.637,17.177,17.177,0,0,0-8.3-4.637,18.476,18.476,0,1,0-8.252,36.018A20.383,20.383,0,0,0,488,128.6,18.386,18.386,0,0,0,500.434,123.506Zm37.09,16.049V127.432a13.529,13.529,0,0,0,5.35.966,18.273,18.273,0,0,0,18.337-18.238,18.291,18.291,0,0,0-29.545-14.622,2.842,2.842,0,0,0-.714,4.126,3.056,3.056,0,0,0,4.129.51,12.258,12.258,0,0,1,7.793-2.443,12.405,12.405,0,1,1,0,24.81,11.671,11.671,0,0,1-5.35-1.683v-.97a2.929,2.929,0,1,0-5.859,0v19.668a2.929,2.929,0,1,0,5.859,0ZM458.508,128.4a18.369,18.369,0,1,1,10.955-32.86,2.806,2.806,0,0,1,.715,4.126,3.03,3.03,0,0,1-4.13.51c-.509-.255-.711-.51-1.224-.764a12.1,12.1,0,0,0-6.315-1.678,12.408,12.408,0,1,0,0,24.81,11.63,11.63,0,0,0,6.315-1.683c.513-.255.715-.508,1.224-.762a3.031,3.031,0,0,1,4.13.507,2.808,2.808,0,0,1-.715,4.127A17.959,17.959,0,0,1,458.508,128.4Z" transform="translate(-439.964 -91.665)"/>
  </g>
  <g id="Grupo_38" data-name="Grupo 38" transform="translate(240.696 13.556)">
    <path id="Trazado_23857" data-name="Trazado 23857" class="cls-2" d="M313.109,69.434a4.381,4.381,0,0,0-3.208-1.106c-1.569-.025-2.838.53-2.814,1.66.022,1.176,1.407,1.523,2.838,1.684,2.077.254,4.846.669,4.8,3.486-.046,2.284-2.215,3.414-4.778,3.414a6.22,6.22,0,0,1-5.1-2.146l1.086-1.315a5.262,5.262,0,0,0,4.062,1.755c1.246,0,2.838-.393,2.884-1.778.022-1.246-1.316-1.615-3.07-1.822-2.192-.278-4.546-.855-4.546-3.277-.022-2.424,2.423-3.369,4.616-3.346a6.063,6.063,0,0,1,4.338,1.524l-1.084,1.246Z" transform="translate(-304.847 -62.002)"/>
    <path id="Trazado_23858" data-name="Trazado 23858" class="cls-2" d="M323.8,66.642a5.931,5.931,0,1,1-5.907,5.976A5.694,5.694,0,0,1,323.8,66.642Zm.024,1.73a3.972,3.972,0,0,0-4.039,4.246,4.039,4.039,0,1,0,8.077,0A4,4,0,0,0,323.819,68.372Z" transform="translate(-306.159 -62.002)"/>
    <path id="Trazado_23859" data-name="Trazado 23859" class="cls-2" d="M335.043,77.8V68.176H332.8V66.515h2.238v-.9c0-2.607,1.431-4.132,3.831-4.132a4.585,4.585,0,0,1,2.584.833l-.785,1.408a3.223,3.223,0,0,0-1.753-.577c-1.223,0-2.007.761-2.007,2.469v.9h3.577v1.661h-3.577v9.6H335.02Z" transform="translate(-307.66 -61.483)"/>
    <path id="Trazado_23860" data-name="Trazado 23860" class="cls-2" d="M346.787,66.575h3.53V68.19h-3.553v6.022c0,1.34.437,2.193,1.8,2.193a3.718,3.718,0,0,0,1.592-.415l.554,1.569a5.6,5.6,0,0,1-2.215.554c-2.446.048-3.6-1.384-3.6-3.9V68.19h-2.284V66.575h2.284V63.437l1.892-.207Z" transform="translate(-308.646 -61.659)"/>
    <path id="Trazado_23861" data-name="Trazado 23861" class="cls-2" d="M354.851,66.924l3.069,9.392,3.023-9.392h1.547l3.023,9.392,3.069-9.392h2.077l-3.992,11.422H364.5L362.951,74.1l-1.223-4.154L360.481,74.1l-1.546,4.245h-2.146L352.75,66.924Z" transform="translate(-309.667 -62.03)"/>
    <path id="Trazado_23862" data-name="Trazado 23862" class="cls-2" d="M384.271,78.35l-.047-2.078a4.824,4.824,0,0,1-4.2,2.308,5.931,5.931,0,0,1,.023-11.86,4.779,4.779,0,0,1,4.223,2.26l.022-2.076h1.846V78.3h-1.823Zm-4.154-9.831a4.166,4.166,0,0,0,0,8.33c5.493,0,5.493-8.354.023-8.354Z" transform="translate(-311.823 -62.01)"/>
    <path id="Trazado_23863" data-name="Trazado 23863" class="cls-2" d="M393.111,66.878l.139,1.708a3.7,3.7,0,0,1,3.507-1.892,4.284,4.284,0,0,1,2.654.853l-.854,1.616a3.376,3.376,0,0,0-5.332,2.793V78.3h-1.891V66.9h1.754Z" transform="translate(-313.549 -62.007)"/>
    <path id="Trazado_23864" data-name="Trazado 23864" class="cls-2" d="M412.031,76.472a6.584,6.584,0,0,1-4.915,2.032,5.931,5.931,0,1,1-.092-11.862c3.484,0,6.137,2.145,5.7,6.692h-9.693a3.86,3.86,0,0,0,4.131,3.414,4.992,4.992,0,0,0,3.623-1.43l1.269,1.154Zm-1.107-4.708c-.093-2.215-1.616-3.414-3.854-3.414a3.89,3.89,0,0,0-4.039,3.392h7.893Z" transform="translate(-314.533 -62.002)"/>
  </g>
  <g id="Grupo_39" data-name="Grupo 39" transform="translate(63.457 31.096)">
    <path id="Trazado_23865" data-name="Trazado 23865" class="cls-1" d="M139.307,127.824h-9.832L107.782,91.187H118.4l15.992,26.937,15.992-26.937h10.683Z" transform="translate(-107.782 -82.011)"/>
    <path id="Trazado_23866" data-name="Trazado 23866" class="cls-1" d="M179.919,127.809h-9.242V91.041h9.242Z" transform="translate(-114.11 -81.997)"/>
    <path id="Trazado_23867" data-name="Trazado 23867" class="cls-1" d="M201.94,91.187h32.18v9.176H201.94a4.531,4.531,0,0,0-4.523,4.522v22.939h-9.176V104.885A13.734,13.734,0,0,1,201.94,91.187Z" transform="translate(-115.877 -82.011)"/>
    <path id="Trazado_23868" data-name="Trazado 23868" class="cls-1" d="M269.484,90.161h22.939v9.176H269.484V113.1a4.6,4.6,0,0,0,4.588,4.588h18.351v9.11H274.072a13.762,13.762,0,0,1-13.829-13.7V99.336h-13.7V90.161h13.7V80.985h9.241Z" transform="translate(-121.743 -80.985)"/>
    <path id="Trazado_23869" data-name="Trazado 23869" class="cls-1" d="M341.55,91.187h9.176v36.637h-32.05a13.721,13.721,0,0,1-13.829-13.7V91.187h9.176v22.939a4.616,4.616,0,0,0,4.653,4.588H341.55Z" transform="translate(-127.609 -82.011)"/>
    <path id="Trazado_23870" data-name="Trazado 23870" class="cls-1" d="M374.619,127.824a11.469,11.469,0,1,1,0-22.939h25.233a4.546,4.546,0,0,0-4.588-4.522H363.149V91.187h32.115a13.748,13.748,0,0,1,13.764,13.7v22.939Zm0-9.11h25.233v-4.588H374.619a2.279,2.279,0,0,0-2.293,2.293A2.322,2.322,0,0,0,374.619,118.714Z" transform="translate(-133.475 -82.011)"/>
    <path id="Trazado_23871" data-name="Trazado 23871" class="cls-1" d="M421.452,126.8V80.985h9.111V126.8Z" transform="translate(-139.34 -80.985)"/>
  </g>
</svg>
