<svg xmlns="http://www.w3.org/2000/svg" width="69.886" height="71.633" viewBox="0 0 69.886 71.633">
  <defs>
    <style>
      .cls-1 {
        isolation: isolate;
      }

      .cls-2 {
        fill: none;
      }

      .cls-3 {
        fill: #839ab6;
      }
    </style>
  </defs>
  <g id="Grupo_812" data-name="Grupo 812" class="cls-1" transform="translate(69.886) rotate(90)">
    <g id="Layer_2" data-name="Layer 2" transform="translate(0 0)">
      <g id="invisible_box" data-name="invisible box" transform="translate(0 0)">
        <rect id="Rectángulo_1656" data-name="Rectángulo 1656" class="cls-2" width="71.633" height="69.886"/>
      </g>
      <g id="icons_Q2" data-name="icons Q2" transform="translate(3.316 1.754)">
        <path id="Trazado_23950" data-name="Trazado 23950" class="cls-3" d="M29.468,29.468H2.947A2.947,2.947,0,0,1,0,26.521H0A26.668,26.668,0,0,1,26.521,0h0a2.947,2.947,0,0,1,2.947,2.947ZM6.041,23.574H23.574V6.041A20.922,20.922,0,0,0,6.041,23.574Z" transform="translate(0)"/>
        <path id="Trazado_23951" data-name="Trazado 23951" class="cls-3" d="M26.522,53.043a26.374,26.374,0,0,1-19.6-8.693A27.258,27.258,0,0,1,0,25.933H0a2.357,2.357,0,0,1,2.357-2.357H23.575V2.211A2.21,2.21,0,0,1,25.786,0h0a27.994,27.994,0,0,1,19.007,7.22A26.521,26.521,0,0,1,27.7,53.043ZM6.042,29.469A20.922,20.922,0,0,0,12.23,41.4a20.333,20.333,0,0,0,15.323,5.746,20.775,20.775,0,0,0,19.6-19.6A20.333,20.333,0,0,0,41.4,12.23,20.922,20.922,0,0,0,29.469,6.042v20.48a2.947,2.947,0,0,1-2.947,2.947Z" transform="translate(11.786 11.786)"/>
      </g>
    </g>
  </g>
</svg>
