<svg id="Icono_Salir" data-name="Icono Salir" xmlns="http://www.w3.org/2000/svg" width="54.131" height="58.399" viewBox="0 0 54.131 58.399">
  <g id="Grupo_26" data-name="Grupo 26" transform="translate(0 0)">
    <path id="Trazado_40" data-name="Trazado 40" d="M43.3,55.053H28.063a7.508,7.508,0,0,1-7.5-7.5V10.844a7.508,7.508,0,0,1,7.5-7.5h15.48a1.673,1.673,0,1,0,0-3.346H28.063A10.856,10.856,0,0,0,17.219,10.844v36.71A10.856,10.856,0,0,0,28.063,58.4H43.3a1.673,1.673,0,1,0,0-3.346Z" transform="translate(-17.219)" fill="#272d3b"/>
    <path id="Trazado_41" data-name="Trazado 41" d="M161.356,147.451l-10.634-10.634a1.674,1.674,0,0,0-2.367,2.367l7.783,7.783H122.192a1.673,1.673,0,0,0,0,3.346h33.946l-7.783,7.783a1.679,1.679,0,0,0,1.177,2.863,1.633,1.633,0,0,0,1.177-.5l10.634-10.634A1.672,1.672,0,0,0,161.356,147.451Z" transform="translate(-107.716 -119.429)" fill="#272d3b"/>
  </g>
</svg>
