<svg id="Icono_Descarga" data-name="Icono Descarga" xmlns="http://www.w3.org/2000/svg" width="58.665" height="54.37" viewBox="0 0 58.665 54.37">
  <g id="Grupo_21" data-name="Grupo 21" transform="translate(0 0)">
    <path id="Trazado_20" data-name="Trazado 20" d="M56.984,228.4A1.674,1.674,0,0,0,55.3,230.08v15.289a7.542,7.542,0,0,1-7.532,7.532H10.894a7.542,7.542,0,0,1-7.532-7.532V229.831a1.681,1.681,0,0,0-3.362,0v15.538a10.906,10.906,0,0,0,10.894,10.894H47.771a10.906,10.906,0,0,0,10.894-10.894V230.08A1.682,1.682,0,0,0,56.984,228.4Z" transform="translate(0 -201.893)" fill="#272d3b"/>
    <path id="Trazado_21" data-name="Trazado 21" d="M147.415,58.273a1.692,1.692,0,0,0,1.183.5,1.64,1.64,0,0,0,1.183-.5l10.682-10.682a1.681,1.681,0,1,0-2.378-2.378l-7.806,7.819v-34.1a1.681,1.681,0,1,0-3.362,0v34.1L139.1,45.213a1.681,1.681,0,0,0-2.378,2.378Z" transform="translate(-119.265 -17.25)" fill="#272d3b"/>
  </g>
</svg>
