<svg id="Icono_Editar" data-name="Icono Editar" xmlns="http://www.w3.org/2000/svg" width="62.216" height="62.208" viewBox="0 0 62.216 62.208">
  <path id="Trazado_24" data-name="Trazado 24" d="M58.186,4.055a13.722,13.722,0,0,0-19.42,0L3.159,39.648a1.781,1.781,0,0,0-.5,1.021L.018,60.208a1.776,1.776,0,0,0,.5,1.5,1.811,1.811,0,0,0,1.259.53,1.441,1.441,0,0,0,.239-.013l11.772-1.591a1.792,1.792,0,1,0-.477-3.553L3.875,58.352,5.718,44.725,20.061,59.068a1.811,1.811,0,0,0,1.259.53,1.755,1.755,0,0,0,1.259-.53L58.186,23.475a13.714,13.714,0,0,0,0-19.42ZM39.455,8.429l5.979,5.979L12.943,46.9,6.964,40.92ZM21.334,55.277l-5.846-5.846L47.979,16.94l5.846,5.846Zm34.983-35.05-14.3-14.3a10.161,10.161,0,0,1,14.3,14.3Z" transform="translate(0 -0.028)" fill="#272d3b"/>
</svg>
