<svg xmlns="http://www.w3.org/2000/svg" width="33.112" height="58.518" viewBox="0 0 33.112 58.518">
  <defs>
    <style>
      .cls-1 {
        fill: #839ab6;
      }
    </style>
  </defs>
  <path id="Icon_metro-money" data-name="Icon metro-money" class="cls-1" d="M28.52,32.11c-7.38-1.918-9.753-3.885-9.753-6.973,0-3.544,3.267-6.031,8.778-6.031,5.787,0,7.933,2.763,8.128,6.827h7.185c-.211-5.608-3.641-10.712-10.436-12.386V6.427H22.668v7.022c-6.307,1.382-11.379,5.445-11.379,11.736,0,7.51,6.226,11.249,15.28,13.427,8.144,1.951,9.753,4.8,9.753,7.851,0,2.227-1.577,5.8-8.778,5.8-6.7,0-9.347-3.007-9.688-6.827H10.688c.406,7.12,5.722,11.1,11.98,12.451v7.055h9.753v-6.99C38.744,56.736,43.8,53.079,43.8,46.4c0-9.2-7.9-12.354-15.28-14.288Z" transform="translate(-10.688 -6.427)"/>
</svg>
